<?xml version="1.0" encoding="UTF-8" standalone="no"?>
<!-- Generator: Adobe Illustrator 24.2.0, SVG Export Plug-In . SVG Version: 6.00 Build 0)  -->

<svg
   xmlns:dc="http://purl.org/dc/elements/1.1/"
   xmlns:cc="http://creativecommons.org/ns#"
   xmlns:rdf="http://www.w3.org/1999/02/22-rdf-syntax-ns#"
   xmlns:svg="http://www.w3.org/2000/svg"
   xmlns="http://www.w3.org/2000/svg"
   xmlns:sodipodi="http://sodipodi.sourceforge.net/DTD/sodipodi-0.dtd"
   xmlns:inkscape="http://www.inkscape.org/namespaces/inkscape"
   version="1.1"
   id="Capa_1"
   x="0px"
   y="0px"
   viewBox="0 0 1024 499.99995"
   xml:space="preserve"
   sodipodi:docname="featureGraph.svg"
   inkscape:version="0.92.5 (2060ec1f9f, 2020-04-08)"
   width="1024"
   height="500"
   inkscape:export-filename="/home/paran/Dropbox/Apps/MemoCards/images/featureGraph.png"
   inkscape:export-xdpi="96"
   inkscape:export-ydpi="96"><metadata
   id="metadata29"><rdf:RDF><cc:Work
       rdf:about=""><dc:format>image/svg+xml</dc:format><dc:type
         rdf:resource="http://purl.org/dc/dcmitype/StillImage" /><dc:title></dc:title></cc:Work></rdf:RDF></metadata><defs
   id="defs27" /><sodipodi:namedview
   pagecolor="#ffffff"
   bordercolor="#666666"
   borderopacity="1"
   objecttolerance="10"
   gridtolerance="10"
   guidetolerance="10"
   inkscape:pageopacity="0"
   inkscape:pageshadow="2"
   inkscape:window-width="1600"
   inkscape:window-height="836"
   id="namedview25"
   showgrid="false"
   inkscape:zoom="0.79286935"
   inkscape:cx="544.17104"
   inkscape:cy="145.38568"
   inkscape:window-x="0"
   inkscape:window-y="27"
   inkscape:window-maximized="1"
   inkscape:current-layer="Capa_1"
   showguides="false"
   units="px" />
<style
   type="text/css"
   id="style2">
	.st0{fill:#009BDB;stroke:#000000;stroke-width:20;stroke-miterlimit:10;}
	.st1{fill:#FFFFFF;}
	.st2{fill:#FFFFFF;stroke:#FFFFFF;stroke-miterlimit:10;}
	.st3{font-family:'TimesNewRomanPS-BoldMT';}
	.st4{font-size:144.4974px;}
	.st5{fill:none;stroke:#000000;stroke-width:20;stroke-miterlimit:10;}
	.st6{fill:#FFFFFF;stroke:#000000;stroke-width:16;stroke-miterlimit:10;}
	.st7{stroke:#FFFFFF;stroke-miterlimit:10;}
</style>





<path
   class="st5"
   d="m 343.15978,363.96349 c 0,23.48 -19.04,42.52 -42.52,42.52 h -10.9 c -18.25,0 -36.5,0 -54.75,0 H 71.979776 c -23.48,0 -42.52,-19.04 -42.52,-42.52 v -228.6504 c 0,-23.4801 19.04,-42.520196 42.52,-42.520196 H 300.63978 c 23.48,0 42.52,19.040096 42.52,42.520196 z"
   id="path14-3"
   inkscape:connector-curvature="0"
   style="fill:#d4e1d5;fill-opacity:1;stroke:none;stroke-width:20;stroke-miterlimit:10"
   inkscape:export-xdpi="147.29399"
   inkscape:export-ydpi="147.29399" /><path
   class="st5"
   d="m 343.15978,363.96349 c 0,23.48 -19.04,42.52 -42.52,42.52 h -10.9 c -18.25,0 -36.5,0 -54.75,0 H 71.979776 c -23.48,0 -42.52,-19.04 -42.52,-42.52 v -228.6504 c 0,-23.4801 19.04,-42.520196 42.52,-42.520196 H 300.63978 c 23.48,0 42.52,19.040096 42.52,42.520196 z"
   id="path14"
   inkscape:connector-curvature="0"
   style="fill:none;fill-opacity:1;stroke:#000000;stroke-width:20;stroke-miterlimit:10"
   inkscape:export-xdpi="147.29399"
   inkscape:export-ydpi="147.29399" />
<polyline
   class="st5"
   points="241.98,448.74 341.7,605.59 251.27,605.59 343.1,762.43 "
   id="polyline16"
   transform="translate(-106.11023,-355.94701)"
   style="fill:none;stroke:#000000;stroke-width:20;stroke-miterlimit:10"
   inkscape:export-xdpi="147.29399"
   inkscape:export-ydpi="147.29399" />
<circle
   class="st6"
   cx="104.74976"
   cy="164.70314"
   r="23.969999"
   id="circle18"
   style="fill:#ffffff;stroke:#000000;stroke-width:16;stroke-miterlimit:10"
   inkscape:export-xdpi="147.29399"
   inkscape:export-ydpi="147.29399" />
<circle
   class="st6"
   cx="277.61981"
   cy="334.57364"
   r="23.969999"
   id="circle20"
   style="fill:#ffffff;stroke:#000000;stroke-width:16;stroke-miterlimit:10"
   inkscape:export-xdpi="147.29399"
   inkscape:export-ydpi="147.29399" />



<path
   style="opacity:0.93999999;fill:#000000;fill-opacity:1;stroke:none;stroke-width:1.12532449;stroke-miterlimit:4;stroke-dasharray:none;stroke-dashoffset:0;stroke-opacity:1"
   d="M 29.531046,325.62529 H 189.07815 l 47.92718,80.4041 -194.861864,-9.951 z"
   id="rect825"
   inkscape:connector-curvature="0"
   sodipodi:nodetypes="ccccc"
   inkscape:export-xdpi="147.29399"
   inkscape:export-ydpi="147.29399" />
<text
   xml:space="preserve"
   style="font-style:normal;font-variant:normal;font-weight:normal;font-stretch:normal;font-size:40px;line-height:1.25;font-family:'Century Schoolbook L';-inkscape-font-specification:'Century Schoolbook L';letter-spacing:0px;word-spacing:0px;fill:#ffffff;fill-opacity:1;stroke:none"
   x="31.846357"
   y="451.44226"
   id="text4533"
   inkscape:export-xdpi="147.29399"
   inkscape:export-ydpi="147.29399"><tspan
     sodipodi:role="line"
     id="tspan4531"
     x="31.846357"
     y="487.07788" /></text>





<g
   aria-label="FREK"
   style="font-style:normal;font-variant:normal;font-weight:normal;font-stretch:normal;font-size:93.0639267px;line-height:1.25;font-family:'TeX Gyre DejaVu Math';-inkscape-font-specification:'TeX Gyre DejaVu Math';letter-spacing:1.1826874px;word-spacing:0px;fill:#000000;fill-opacity:1;stroke:none;stroke-width:0.9694159"
   id="text4537"
   transform="translate(17.441106,86.328294)"
   inkscape:export-xdpi="147.29399"
   inkscape:export-ydpi="147.29399"><path
     d="M 61.22884,258.87818 H 42.143465 q -1.772214,0 -2.590158,1.13604 -0.817945,1.13603 -0.817945,2.77192 v 14.04139 h 20.630382 v 6.99797 H 38.735362 v 26.0379 h -8.224888 v -48.57682 q 0,-4.13517 3.544427,-6.90709 3.362661,-2.68104 7.543267,-2.68104 H 61.22884 Z"
     style="font-style:normal;font-variant:normal;font-weight:normal;font-stretch:normal;font-family:Uroob;-inkscape-font-specification:Uroob;letter-spacing:1.1826874px;fill:#ffffff;stroke-width:0.9694159"
     id="path821"
     inkscape:connector-curvature="0" /><path
     d="M 102.30905,310.09061 H 93.766073 L 81.72411,284.91609 h -6.498116 v 25.17452 h -8.27033 v -58.25584 h 22.448038 q 4.453254,0 7.588708,2.90825 3.22634,2.95369 3.22634,7.45239 v 13.63241 q 0,6.49811 -5.54385,8.45209 -1.726772,0.63618 -3.817075,0.63618 z M 91.99386,273.87384 v -10.17887 q 0,-3.04457 -2.362952,-4.40781 -0.727062,-0.40898 -1.68133,-0.40898 H 75.225994 v 18.90362 h 14.086825 q 2.362951,0 2.590158,-2.49928 0.09088,-0.68162 0.09088,-1.40868 z"
     style="font-style:normal;font-variant:normal;font-weight:normal;font-stretch:normal;font-family:Uroob;-inkscape-font-specification:Uroob;letter-spacing:1.1826874px;fill:#ffffff;stroke-width:0.9694159"
     id="path823"
     inkscape:connector-curvature="0" /><path
     d="m 138.66336,309.90884 h -19.63067 q -4.22605,0 -7.54327,-2.6356 -3.54443,-2.77192 -3.54443,-6.86164 v -39.12502 q 0,-4.13517 3.54443,-6.90709 3.36266,-2.68104 7.54327,-2.68104 h 19.63067 v 7.17973 h -19.08538 q -1.77221,0 -2.59016,1.13604 -0.81794,1.13603 -0.81794,2.77192 v 14.04139 h 20.63038 v 6.99797 h -20.63038 v 15.08653 q 0,1.63589 0.81794,2.77193 0.81795,1.13603 2.59016,1.13603 h 19.08538 z"
     style="font-style:normal;font-variant:normal;font-weight:normal;font-stretch:normal;font-family:Uroob;-inkscape-font-specification:Uroob;letter-spacing:1.1826874px;fill:#ffffff;stroke-width:0.9694159"
     id="path825"
     inkscape:connector-curvature="0" /><path
     d="m 180.4252,310.04517 h -8.72475 l -14.76844,-24.4929 -4.27149,7.81036 v 16.54621 h -8.27033 v -55.57479 c -0.15147,-1.60559 0.2272,-2.49927 1.13603,-2.68104 0.57559,-0.12118 1.21177,-0.15148 1.90854,-0.0909 h 5.22576 v 27.44659 l 16.63154,-27.44659 h 3.81708 c 0.75735,0 1.42383,0.22721 1.99942,0.68162 0.57559,0.45442 0.86338,0.95428 0.86338,1.49957 0,0.515 -0.30294,1.34809 -0.90883,2.49928 -0.60588,1.15118 -1.37838,2.52957 -2.31751,4.13516 -0.93912,1.60559 -1.96912,3.33237 -3.09001,5.18032 -1.12089,1.84795 -2.21148,3.62016 -3.27178,5.31664 -1.03,1.66618 -1.95397,3.16574 -2.77192,4.49869 -0.81795,1.30265 -1.39354,2.21148 -1.72677,2.72648 3.09001,5.2712 6.24061,10.57269 9.4518,15.90448 3.21119,5.33179 6.24062,10.67873 9.08828,16.04081 z"
     style="font-style:normal;font-variant:normal;font-weight:normal;font-stretch:normal;font-family:Uroob;-inkscape-font-specification:Uroob;letter-spacing:1.1826874px;fill:#ffffff;stroke-width:0.9694159"
     id="path827"
     inkscape:connector-curvature="0"
     sodipodi:nodetypes="ccccccccccccscsccccccscc" /></g>
<text
   xml:space="preserve"
   style="font-style:normal;font-variant:normal;font-weight:normal;font-stretch:normal;font-size:40px;line-height:1.25;font-family:Suruma;-inkscape-font-specification:Suruma;letter-spacing:0px;word-spacing:0px;fill:#000001;fill-opacity:1;stroke:none;"
   x="408.64236"
   y="87.573914"
   id="text5087"><tspan
     sodipodi:role="line"
     id="tspan5085"
     x="408.64236"
     y="87.573914"
     style="font-weight:bold;font-size:96px;fill:#000001;fill-opacity:1;">Learn by heart</tspan></text>
<text
   xml:space="preserve"
   style="font-style:normal;font-variant:normal;font-weight:normal;font-stretch:normal;font-size:34.22204971px;line-height:1.25;font-family:Suruma;-inkscape-font-specification:Suruma;letter-spacing:0px;word-spacing:0px;fill:#000001;fill-opacity:1;stroke:none;stroke-width:0.85555124"
   x="372.84024"
   y="163.31743"
   id="text5087-6"><tspan
     sodipodi:role="line"
     id="tspan5085-2"
     x="372.84024"
     y="163.31743"
     style="font-weight:bold;font-size:45.62939835px;fill:#000001;fill-opacity:1;stroke-width:0.85555124">Features:</tspan><tspan
     sodipodi:role="line"
     x="372.84024"
     y="220.35417"
     style="font-weight:bold;font-size:45.62939835px;fill:#000001;fill-opacity:1;stroke-width:0.85555124"
     id="tspan5119">1) Review with spaced repetitions</tspan><tspan
     sodipodi:role="line"
     x="372.84024"
     y="277.39093"
     style="font-weight:bold;font-size:45.62939835px;fill:#000001;fill-opacity:1;stroke-width:0.85555124"
     id="tspan5123">2) Organize cards in collections</tspan><tspan
     sodipodi:role="line"
     x="372.84024"
     y="334.42767"
     style="font-weight:bold;font-size:45.62939835px;fill:#000001;fill-opacity:1;stroke-width:0.85555124"
     id="tspan5127">3) Backup</tspan><tspan
     sodipodi:role="line"
     x="372.84024"
     y="391.46442"
     style="font-weight:bold;font-size:45.62939835px;fill:#000001;fill-opacity:1;stroke-width:0.85555124"
     id="tspan5131">4) Sharing</tspan><tspan
     sodipodi:role="line"
     x="372.84024"
     y="448.50116"
     style="font-weight:bold;font-size:45.62939835px;fill:#000001;fill-opacity:1;stroke-width:0.85555124"
     id="tspan5135">5) Highlight text</tspan></text>
</svg>